<?xml version="1.0" standalone="no"?>
<!DOCTYPE svg PUBLIC "-//W3C//DTD SVG 20010904//EN"
 "http://www.w3.org/TR/2001/REC-SVG-20010904/DTD/svg10.dtd">
<svg version="1.0" xmlns="http://www.w3.org/2000/svg"
 width="300.000000pt" height="380.000000pt" viewBox="0 0 300.000000 380.000000"
 preserveAspectRatio="xMidYMid meet">
<metadata>
Created by potrace 1.10, written by Peter Selinger 2001-2011
</metadata>
<g transform="translate(0.000000,380.000000) scale(0.100000,-0.100000)"
fill="#000000" stroke="none">
<path d="M1320 3611 c-52 -3 -104 -11 -115 -17 -11 -7 -33 -13 -50 -15 -54 -6
-138 -74 -155 -125 -6 -18 -21 -39 -34 -47 -44 -29 -111 -204 -111 -287 2
-156 16 -317 35 -404 21 -96 21 -100 4 -113 -10 -7 -23 -13 -29 -13 -15 0 -41
-32 -48 -60 -8 -30 3 -111 14 -105 4 3 7 -3 7 -12 -2 -20 75 -179 80 -165 1 4
-7 35 -19 67 -20 57 -26 141 -13 190 4 16 3 17 -5 5 -6 -8 -11 -37 -12 -65
l-1 -50 -13 35 c-23 60 -19 107 12 136 24 22 28 23 42 9 13 -13 16 -46 16
-189 0 -96 3 -172 6 -171 7 5 24 -43 47 -140 11 -44 32 -107 46 -139 14 -32
26 -65 26 -73 0 -8 -16 -33 -35 -55 -19 -23 -45 -68 -57 -101 -21 -55 -27 -62
-63 -73 -22 -6 -98 -30 -170 -53 -71 -22 -161 -50 -200 -61 -102 -31 -184 -60
-235 -83 -66 -30 -179 -109 -225 -156 -21 -23 -45 -41 -52 -41 -7 0 -13 -6
-13 -13 0 -27 31 -12 92 45 35 32 67 58 71 58 5 0 25 13 45 29 20 17 73 44
117 61 44 17 88 35 97 40 26 15 32 12 17 -7 -13 -16 -12 -17 3 -4 10 7 15 18
12 23 -8 12 46 7 64 -6 9 -6 11 -4 5 9 -5 15 -3 17 11 12 11 -5 15 -3 10 5 -5
8 -2 9 11 5 11 -5 22 -1 30 10 8 11 25 17 49 16 20 -1 36 3 36 8 0 6 9 5 21
-2 12 -6 19 -7 16 -2 -8 12 30 33 66 37 15 1 33 8 39 14 7 7 17 12 23 12 5 0
3 -5 -5 -10 -9 -6 -10 -10 -3 -10 6 0 14 4 18 10 3 5 13 6 22 3 10 -4 14 -2 9
5 -3 6 -1 14 5 18 8 5 9 3 4 -6 -6 -10 -3 -12 12 -8 17 4 20 0 22 -35 1 -22 5
-45 9 -51 7 -11 12 -32 14 -53 1 -7 4 -13 8 -13 4 0 13 -19 20 -42 7 -24 15
-50 18 -58 3 -8 6 -24 8 -35 4 -36 13 -64 23 -82 8 -14 9 -8 5 22 -6 40 -10
56 -59 207 -38 118 -42 161 -16 187 23 23 45 69 43 87 -1 6 9 23 22 37 13 14
22 28 20 30 -3 2 2 10 11 17 13 11 15 9 15 -14 0 -14 -5 -26 -10 -26 -7 0 -7
-6 0 -19 5 -11 10 -31 10 -46 0 -40 55 -151 100 -203 63 -71 140 -131 185
-143 43 -11 98 -56 89 -71 -4 -5 -13 0 -21 11 -16 23 -72 56 -80 47 -3 -3 5
-10 18 -14 22 -9 21 -11 -31 -37 -30 -15 -86 -51 -125 -80 -38 -28 -81 -59
-95 -68 -45 -31 6 -19 80 18 38 19 76 35 84 35 7 0 19 7 26 14 18 23 67 -39
81 -103 12 -55 25 -62 23 -12 0 17 -13 50 -28 72 -19 31 -22 40 -10 35 15 -6
15 -4 3 10 -9 11 -15 12 -17 5 -3 -9 -7 -9 -18 0 -36 29 2 60 64 52 18 -3 39
0 46 6 14 12 67 5 101 -12 18 -9 19 -9 6 6 -7 10 -24 17 -36 17 -13 0 -32 11
-42 24 -10 13 -51 36 -91 51 -54 21 -90 44 -139 89 -92 85 -131 149 -148 244
-7 42 -11 79 -9 82 3 2 26 -18 53 -45 86 -91 101 -101 112 -85 8 12 9 11 5 -5
-5 -18 4 -26 56 -52 35 -17 88 -39 120 -47 70 -20 190 -20 243 0 22 8 45 16
52 18 7 1 20 10 31 19 10 9 23 17 28 17 5 0 17 7 27 14 15 12 17 18 7 36 -15
28 -4 40 14 15 7 -10 18 -15 24 -11 9 5 9 11 -1 20 -14 16 -59 14 -65 -3 -6
-17 -30 -13 -35 6 -4 16 -5 16 -6 -1 -1 -16 -3 -17 -18 -5 -16 13 -17 12 -5
-3 10 -13 11 -22 2 -37 -6 -12 -13 -21 -16 -21 -2 0 1 10 7 23 12 21 11 21 -8
5 -11 -10 -25 -18 -31 -18 -18 0 -14 -17 4 -24 9 -4 27 1 40 9 13 9 24 11 24
6 0 -5 -14 -14 -31 -21 -22 -10 -33 -10 -42 -1 -16 16 -30 14 -24 -4 7 -18 -1
-23 -47 -30 -22 -4 -36 -2 -36 4 0 6 18 11 41 11 37 0 39 1 25 16 -9 8 -21 12
-26 9 -6 -4 -17 -1 -25 5 -12 10 -15 9 -15 -6 0 -16 -2 -17 -10 -4 -9 13 -10
13 -10 0 0 -13 -2 -13 -9 -1 -6 9 -24 14 -45 13 -26 -1 -34 2 -30 12 3 8 0 17
-7 22 -7 4 -10 3 -6 -3 4 -6 0 -24 -9 -39 l-16 -29 6 28 c6 26 5 27 -13 17
-18 -9 -20 -8 -14 7 6 16 5 16 -10 4 -16 -12 -21 -8 -18 12 1 4 -8 3 -19 -3
-13 -7 -20 -7 -20 0 0 5 6 10 13 10 6 0 3 6 -8 12 -11 6 -24 18 -30 25 -7 10
-10 6 -10 -17 0 -19 5 -30 14 -30 8 0 12 -2 9 -5 -11 -11 -58 7 -58 22 0 13 3
13 15 3 19 -16 20 0 1 25 -7 10 -19 16 -27 13 -19 -7 -35 -5 -31 5 1 5 -7 11
-18 14 -11 3 -20 12 -20 20 0 8 -5 11 -10 8 -14 -9 -12 8 3 24 10 11 10 13 0
7 -8 -4 -13 -1 -13 9 0 12 -4 14 -19 6 -31 -17 -48 12 -54 86 -1 18 -8 33 -14
33 -7 0 -16 12 -19 28 -4 15 -11 32 -16 38 -5 7 -8 16 -6 20 1 5 -3 19 -10 32
-7 12 -10 32 -6 44 3 12 2 18 -3 15 -5 -3 -15 17 -23 46 -7 29 -16 57 -20 62
-16 22 -21 75 -26 288 -4 168 -9 227 -20 245 -11 17 -12 22 -2 20 9 -2 13 12
13 50 0 36 4 52 13 52 9 0 11 7 7 20 -4 13 -1 22 9 26 9 3 16 12 16 20 0 8 5
14 10 14 6 0 10 5 10 11 0 5 -4 7 -10 4 -5 -3 -10 4 -10 16 0 16 5 20 20 16
17 -4 19 -1 14 20 -5 17 0 34 15 53 25 35 27 48 4 29 -15 -13 -15 -12 -2 11
13 25 15 31 18 50 0 6 6 10 12 10 5 0 7 -6 3 -12 -4 -8 -3 -10 2 -5 5 5 9 14
9 20 0 7 9 13 19 15 11 2 28 14 37 26 13 15 18 17 19 6 0 -9 6 -6 16 9 14 20
22 22 58 17 38 -6 40 -5 22 9 -22 17 -9 20 28 6 15 -6 26 -6 28 -1 2 6 19 5
43 -2 22 -6 43 -11 48 -10 4 1 7 -2 7 -8 0 -5 7 -10 15 -10 19 0 19 7 -2 29
-19 20 -87 35 -142 32 -50 -3 -161 -49 -196 -81 -32 -30 -75 -48 -75 -31 0 5
8 12 18 14 15 4 15 5 0 6 -25 2 -31 -16 -14 -40 13 -20 14 -20 19 -2 4 15 5
15 6 1 0 -9 -3 -20 -9 -23 -5 -3 -10 -14 -10 -24 0 -10 -11 -34 -24 -54 -14
-20 -28 -53 -32 -74 -9 -46 -30 -99 -43 -107 -5 -4 -12 22 -15 56 -9 90 -12
267 -5 262 3 -2 15 3 25 11 16 13 17 14 2 9 -10 -3 -18 -1 -18 5 0 6 5 11 10
11 6 0 10 19 10 42 0 49 36 117 79 147 21 16 28 27 24 44 -4 22 -4 22 12 2 17
-20 17 -20 11 1 -4 12 -4 28 0 37 8 21 91 70 104 62 6 -3 10 -1 10 4 0 6 3 10
8 9 4 -1 19 4 33 9 59 25 439 35 554 14 123 -21 159 -33 231 -75 85 -49 151
-124 159 -182 17 -124 34 -298 35 -354 0 -96 -12 -200 -22 -194 -5 3 -8 11 -6
17 5 31 -16 96 -39 121 -14 15 -26 33 -27 39 -4 18 -16 50 -27 69 -12 23 -11
37 1 18 7 -11 10 -6 10 20 0 23 -3 30 -9 22 -6 -10 -10 -7 -15 12 -4 15 -18
36 -31 48 -14 12 -25 27 -25 33 0 27 -87 82 -143 90 -12 2 -33 6 -47 10 -72
17 -157 17 -218 -1 -64 -19 -73 -31 -33 -46 20 -7 22 -5 17 9 -4 10 -4 14 0
10 4 -4 14 -1 22 6 13 9 14 9 8 0 -7 -12 12 -9 39 6 19 10 45 11 45 1 0 -6 9
-10 20 -10 13 0 18 5 14 15 -4 8 -1 15 5 15 6 0 11 -6 11 -14 0 -9 9 -13 25
-11 16 1 25 -3 25 -11 0 -21 20 -17 20 4 1 16 2 16 14 -1 17 -22 26 -23 37 -5
7 10 9 10 9 1 0 -7 7 -13 15 -13 8 0 15 -5 15 -11 0 -8 5 -8 15 1 12 10 16 8
25 -15 5 -14 10 -32 10 -40 0 -8 5 -17 10 -20 6 -4 10 5 10 20 0 14 4 24 9 21
12 -8 20 -66 9 -66 -4 0 -8 -5 -8 -10 0 -7 6 -8 16 -2 29 16 56 -22 53 -76 -2
-29 2 -46 8 -45 6 1 13 -11 17 -27 3 -16 19 -44 35 -61 18 -18 27 -37 24 -46
-3 -8 0 -19 8 -24 10 -6 10 -9 2 -9 -7 0 -13 -5 -13 -11 0 -5 4 -8 8 -5 10 6
7 -336 -3 -469 -3 -44 -17 -114 -30 -155 -13 -41 -32 -103 -42 -138 -10 -35
-27 -73 -38 -84 -11 -13 -15 -23 -8 -25 8 -3 7 -11 -1 -28 -6 -14 -16 -23 -23
-21 -6 3 -14 -1 -17 -9 -3 -10 0 -12 11 -8 13 5 15 2 10 -11 -4 -10 -7 -21 -7
-24 0 -4 -5 0 -10 8 -6 10 -10 11 -10 3 0 -20 -18 -15 -25 7 -4 11 -11 18 -16
14 -6 -4 -4 -13 5 -23 9 -10 13 -21 9 -26 -5 -4 2 -5 15 -2 13 3 20 1 16 -5
-3 -5 -20 -6 -37 -3 -30 7 -31 6 -15 -10 18 -19 12 -39 -24 -76 -14 -15 -18
-16 -29 -3 -6 8 -18 14 -25 14 -8 0 -14 6 -14 13 0 6 -8 21 -17 32 -13 16 -15
17 -10 2 8 -22 -13 -68 -27 -60 -7 4 -7 1 1 -7 12 -13 37 -4 28 11 -4 5 1 9
10 9 10 0 13 -5 9 -12 -4 -7 -3 -10 1 -5 5 4 20 0 34 -9 25 -17 25 -17 88 50
l64 67 -7 -68 c-3 -37 -10 -82 -14 -100 -19 -77 -179 -235 -307 -304 -36 -19
-59 -37 -54 -42 16 -16 138 66 245 166 57 53 110 97 116 97 13 0 40 24 40 36
0 4 -9 -1 -20 -11 -11 -10 -20 -13 -20 -8 0 6 7 16 15 23 9 7 13 15 10 18 -3
3 0 11 6 18 6 8 9 21 5 29 -3 9 -2 13 3 10 5 -3 12 -1 16 5 3 5 1 10 -4 10 -7
0 -10 20 -9 48 l1 47 7 -45 c4 -25 8 -39 8 -32 1 8 7 10 15 6 9 -6 9 -5 0 8
-12 14 -8 28 8 28 8 0 18 -37 25 -89 2 -20 13 -41 25 -49 20 -14 21 -21 14
-81 -10 -88 -10 -89 -24 -141 -27 -99 -32 -109 -49 -104 -14 5 -14 4 -3 -4 13
-9 12 -17 -4 -54 -11 -24 -35 -67 -53 -96 -27 -43 -30 -53 -16 -50 26 5 66 88
131 273 27 77 75 161 107 187 16 13 25 14 41 5 11 -6 27 -12 36 -14 31 -5 109
-42 109 -52 0 -6 6 -8 14 -5 14 5 43 -3 156 -45 30 -12 56 -21 58 -21 2 0 1
-3 -1 -8 -3 -4 11 -7 30 -8 19 0 39 -7 44 -15 5 -8 9 -11 9 -7 0 10 63 -24
105 -57 69 -54 167 -154 160 -165 -3 -6 0 -7 9 -4 29 11 16 34 -62 112 -92 91
-158 132 -284 177 -51 18 -163 58 -248 89 -296 109 -280 101 -280 146 0 48
-22 102 -56 139 -37 41 -42 65 -19 95 19 26 65 168 65 203 0 15 7 42 16 58 11
20 18 65 22 138 2 59 7 105 11 102 3 -4 6 -11 6 -16 0 -18 20 -9 21 10 1 11
-3 19 -9 18 -14 -3 -27 50 -21 87 11 68 15 76 32 76 10 0 28 -7 40 -16 42 -29
24 -149 -34 -238 -21 -31 -23 -40 -12 -47 11 -7 11 -9 -1 -9 -8 0 -12 -3 -8
-6 3 -4 0 -19 -9 -35 -8 -16 -11 -29 -7 -29 13 0 48 61 72 125 13 33 28 71 34
84 7 13 12 50 12 81 0 66 -18 95 -67 105 -30 7 -30 7 -24 59 4 28 11 67 16 86
17 62 30 273 20 310 -5 19 -11 67 -14 105 -15 197 -24 223 -109 307 -80 78
-162 118 -292 140 -72 12 -344 17 -475 9z m-200 -420 c0 -6 -4 -13 -10 -16 -5
-3 -10 1 -10 9 0 9 5 16 10 16 6 0 10 -4 10 -9z m-196 -397 c4 -15 3 -31 -3
-37 -7 -7 -8 -3 -4 12 3 12 1 21 -6 21 -6 0 -11 7 -11 15 0 25 17 17 24 -11z
m836 -1154 c0 -5 -2 -10 -4 -10 -3 0 -8 5 -11 10 -3 6 -1 10 4 10 6 0 11 -4
11 -10z m-280 -60 c0 -5 -5 -10 -11 -10 -5 0 -7 5 -4 10 3 6 8 10 11 10 2 0 4
-4 4 -10z m706 -43 c-9 -12 -20 -32 -25 -44 -12 -27 -31 -39 -31 -19 0 8 4 17
9 20 5 3 7 15 4 26 -3 12 0 20 6 20 7 0 9 5 6 10 -12 19 5 31 26 19 19 -10 19
-12 5 -32z m-651 23 c3 -5 2 -10 -4 -10 -5 0 -13 5 -16 10 -3 6 -2 10 4 10 5
0 13 -4 16 -10z m-137 -268 c2 -6 -6 -10 -17 -9 -22 1 -26 8 -14 21 9 9 26 3
31 -12z m-118 -62 c-8 -5 -17 -7 -19 -4 -3 3 1 9 9 14 8 5 17 7 19 4 3 -3 -1
-9 -9 -14z"/>
<path d="M1220 3525 c-7 -9 -11 -17 -9 -20 3 -2 10 5 17 15 14 24 10 26 -8 5z"/>
<path d="M1185 3459 c-4 -6 -5 -12 -2 -15 2 -3 7 2 10 11 7 17 1 20 -8 4z"/>
<path d="M1205 3449 c-4 -6 -5 -12 -2 -15 2 -3 7 2 10 11 7 17 1 20 -8 4z"/>
<path d="M1222 3418 c-7 -7 -12 -17 -12 -22 0 -6 6 -2 12 9 11 19 11 19 19 0
6 -16 8 -17 8 -3 1 22 -13 30 -27 16z"/>
<path d="M1925 3410 c-4 -6 1 -7 12 -3 16 6 17 5 3 -13 -14 -18 -14 -18 2 -5
10 7 15 17 12 22 -7 12 -21 11 -29 -1z"/>
<path d="M1690 3397 c0 -20 9 -25 30 -20 17 4 17 7 5 19 -17 18 -35 18 -35 1z"/>
<path d="M1302 3350 c0 -14 2 -19 5 -12 2 6 2 18 0 25 -3 6 -5 1 -5 -13z"/>
<path d="M1276 3347 c3 -10 9 -15 12 -12 3 3 0 11 -7 18 -10 9 -11 8 -5 -6z"/>
<path d="M1400 3301 c0 -11 4 -22 9 -25 4 -3 6 6 3 19 -5 30 -12 33 -12 6z"/>
<path d="M1418 3248 c8 -10 24 -20 35 -24 12 -3 30 -13 40 -22 24 -21 47 -1
27 23 -7 8 -15 13 -18 11 -2 -3 -17 1 -33 10 -20 10 -29 11 -29 3 0 -8 -6 -7
-17 2 -16 13 -17 12 -5 -3z"/>
<path d="M2000 3076 c0 -2 8 -10 18 -17 15 -13 16 -12 3 4 -13 16 -21 21 -21
13z"/>
<path d="M1149 2793 c-13 -16 -12 -17 4 -4 9 7 17 15 17 17 0 8 -8 3 -21 -13z"/>
<path d="M1870 2793 c0 -9 40 -36 45 -31 2 2 -8 11 -21 21 -13 10 -24 14 -24
10z"/>
<path d="M1189 2776 c-2 -2 -20 -7 -39 -10 -19 -3 -36 -10 -38 -15 -2 -6 -10
-11 -18 -11 -8 0 -14 -4 -14 -10 0 -15 22 -12 47 5 22 15 58 11 47 -6 -3 -5 0
-9 6 -9 6 0 13 6 16 13 3 8 11 14 19 14 18 0 20 -17 3 -18 -38 -2 40 -18 85
-18 51 1 76 -3 109 -16 13 -5 15 -2 11 15 -3 13 -11 19 -19 16 -8 -3 -30 3
-50 14 -19 11 -39 18 -44 15 -5 -3 -11 -1 -15 5 -4 6 -11 8 -16 5 -5 -4 -9 -2
-9 4 0 5 -12 5 -30 -2 -24 -9 -33 -9 -39 1 -4 7 -9 10 -12 8z m101 -26 c0 -5
-8 -10 -17 -10 -15 0 -16 2 -3 10 19 12 20 12 20 0z"/>
<path d="M1770 2762 c-24 -2 -47 -7 -50 -11 -11 -17 -66 -38 -88 -35 -16 3
-22 0 -20 -8 3 -8 17 -12 34 -10 16 1 37 2 47 3 11 0 15 5 10 12 -4 7 0 7 10
-1 16 -14 24 -14 193 3 48 4 64 2 74 -10 10 -12 16 -13 27 -3 12 9 14 9 13 -3
-4 -25 0 -39 11 -39 16 0 0 43 -24 62 -11 9 -35 16 -53 16 -18 0 -40 5 -50 10
-14 8 -21 6 -31 -6 -9 -12 -12 -13 -11 -3 4 17 -34 27 -92 23z m225 -42 c3 -5
1 -10 -4 -10 -6 0 -11 5 -11 10 0 6 2 10 4 10 3 0 8 -4 11 -10z"/>
<path d="M1046 2724 c-9 -23 -2 -28 13 -10 7 8 8 17 3 20 -6 3 -13 -1 -16 -10z"/>
<path d="M1146 2725 c4 -8 8 -15 10 -15 2 0 4 7 4 15 0 8 -4 15 -10 15 -5 0
-7 -7 -4 -15z"/>
<path d="M1083 2703 c9 -2 23 -2 30 0 6 3 -1 5 -18 5 -16 0 -22 -2 -12 -5z"/>
<path d="M1035 2666 c-18 -13 -17 -14 15 -11 19 2 40 4 45 5 13 1 -16 20 -31
20 -5 0 -19 -6 -29 -14z"/>
<path d="M1198 2653 c6 -2 18 -2 25 0 6 3 1 5 -13 5 -14 0 -19 -2 -12 -5z"/>
<path d="M1620 2645 c0 -8 4 -15 8 -15 5 0 9 7 9 15 0 8 -4 15 -9 15 -4 0 -8
-7 -8 -15z"/>
<path d="M1762 2651 c-23 -4 -50 -15 -60 -25 -16 -17 -16 -18 15 -2 18 9 45
16 62 16 16 0 33 5 36 10 3 6 3 9 -2 9 -4 -1 -27 -5 -51 -8z"/>
<path d="M1302 2640 c15 -4 37 -15 50 -24 12 -9 29 -16 38 -16 8 1 -5 12 -30
25 -25 13 -54 24 -65 24 -15 -1 -13 -3 7 -9z"/>
<path d="M1920 2639 c13 -6 33 -17 42 -26 10 -9 21 -13 24 -10 8 8 -56 47 -76
46 -8 0 -4 -5 10 -10z"/>
<path d="M1095 2620 c-10 -11 -14 -20 -8 -20 5 0 18 9 28 20 10 11 14 20 8 20
-5 0 -18 -9 -28 -20z"/>
<path d="M1657 2629 c7 -7 15 -10 18 -7 3 3 -2 9 -12 12 -14 6 -15 5 -6 -5z"/>
<path d="M1150 2617 c-14 -7 -41 -23 -60 -35 -32 -21 -33 -23 -10 -20 14 1 36
-5 50 -15 25 -18 90 -24 90 -8 0 8 -75 26 -92 22 -15 -2 -8 11 15 30 29 24 32
24 45 -5 16 -37 50 -40 81 -7 26 27 27 27 63 12 35 -15 56 -37 23 -24 -20 7
-110 -18 -95 -27 6 -4 29 -2 50 4 46 12 62 3 34 -20 -18 -15 -17 -15 6 -1 14
9 24 20 22 26 -1 7 5 14 14 18 11 4 4 12 -27 30 -51 28 -169 40 -209 20z m80
-7 c0 -5 -4 -10 -10 -10 -5 0 -10 5 -10 10 0 6 5 10 10 10 6 0 10 -4 10 -10z"/>
<path d="M1782 2623 c-38 -5 -94 -33 -99 -50 -5 -13 13 -19 77 -27 48 -6 33 5
-27 21 l-33 8 40 17 40 16 12 -26 c22 -45 88 -38 88 9 0 25 2 24 66 -11 63
-34 71 -27 14 13 -42 29 -106 40 -178 30z m38 -23 c0 -5 -2 -10 -4 -10 -3 0
-8 5 -11 10 -3 6 -1 10 4 10 6 0 11 -4 11 -10z"/>
<path d="M1425 2591 c-3 -5 -1 -12 5 -16 5 -3 10 1 10 9 0 18 -6 21 -15 7z"/>
<path d="M1620 2580 c0 -5 5 -10 10 -10 6 0 10 5 10 10 0 6 -4 10 -10 10 -5 0
-10 -4 -10 -10z"/>
<path d="M1893 2554 c-42 -18 -41 -21 2 -19 19 1 35 -2 35 -7 0 -4 4 -8 9 -8
10 0 3 38 -8 44 -3 2 -21 -3 -38 -10z"/>
<path d="M1690 2511 c0 -6 4 -13 10 -16 6 -3 7 1 4 9 -7 18 -14 21 -14 7z"/>
<path d="M1754 2505 c11 -8 22 -12 25 -9 6 6 -19 24 -34 24 -5 -1 -1 -7 9 -15z"/>
<path d="M1875 2500 c-3 -5 -1 -10 4 -10 6 0 11 5 11 10 0 6 -2 10 -4 10 -3 0
-8 -4 -11 -10z"/>
<path d="M2200 2485 c0 -16 5 -37 10 -45 7 -12 10 -8 10 15 0 17 -5 37 -10 45
-7 12 -10 8 -10 -15z"/>
<path d="M1868 2473 c7 -3 16 -2 19 1 4 3 -2 6 -13 5 -11 0 -14 -3 -6 -6z"/>
<path d="M1626 2397 c3 -10 9 -15 12 -12 3 3 0 11 -7 18 -10 9 -11 8 -5 -6z"/>
<path d="M1654 2336 c-16 -15 -20 -26 -14 -41 6 -14 9 -16 10 -5 2 8 2 19 1
23 -1 5 13 -1 31 -14 33 -23 33 -23 14 -1 -24 27 -16 39 8 13 27 -29 46 -93
34 -108 -17 -21 7 -15 25 5 19 20 23 37 7 27 -9 -6 -14 11 -13 43 1 7 -11 20
-26 30 -14 9 -33 24 -41 33 -14 15 -17 14 -36 -5z"/>
<path d="M1382 2317 c-12 -13 -22 -30 -22 -38 0 -8 -5 -20 -12 -27 -9 -9 -9
-12 0 -12 6 0 18 16 26 35 12 27 21 35 41 35 24 0 25 2 11 15 -19 19 -19 19
-44 -8z"/>
<path d="M1630 2230 c-9 -5 -36 -11 -60 -14 -25 -2 -46 -5 -47 -5 -2 -1 -3 -8
-3 -16 0 -20 56 -20 63 -1 4 9 23 16 48 18 23 2 44 9 47 16 4 14 -26 16 -48 2z"/>
<path d="M1395 2219 c-10 -15 -6 -16 54 -11 36 3 49 7 40 13 -20 12 -86 11
-94 -2z"/>
<path d="M1681 2185 c-19 -6 -29 -15 -23 -19 13 -8 62 10 62 24 0 5 -1 9 -2 9
-2 -1 -18 -7 -37 -14z"/>
<path d="M1390 2170 c20 -13 50 -13 50 0 0 6 -15 10 -32 10 -25 0 -29 -3 -18
-10z"/>
<path d="M1627 2156 c-4 -10 -1 -13 8 -9 8 3 12 9 9 14 -7 12 -11 11 -17 -5z"/>
<path d="M1466 2144 c-3 -8 -10 -12 -16 -9 -5 3 -10 1 -10 -5 0 -6 -4 -8 -10
-5 -6 4 -7 -1 -3 -11 5 -14 3 -16 -11 -11 -11 5 -25 -2 -42 -20 -14 -15 -24
-20 -24 -12 0 23 -28 -12 -36 -46 -7 -28 -6 -29 12 -15 35 28 51 45 57 63 4
10 11 15 17 12 6 -4 8 -11 5 -16 -4 -5 -1 -9 4 -9 6 0 11 7 11 16 0 14 3 14
15 4 8 -7 15 -11 16 -9 0 2 2 15 3 28 2 13 13 33 26 43 16 13 18 18 7 18 -8 0
-18 -7 -21 -16z"/>
<path d="M1580 2130 c0 -5 7 -7 15 -4 10 4 15 0 15 -11 0 -10 -5 -13 -12 -9
-7 5 -8 3 -3 -5 10 -18 29 3 22 23 -7 17 -37 22 -37 6z"/>
<path d="M1636 2133 c-11 -11 -6 -21 12 -26 16 -4 16 -5 -1 -6 -22 -1 -12 -21
10 -21 9 0 22 8 30 18 8 9 12 11 8 4 -8 -15 12 -42 31 -42 16 0 54 -30 54 -43
0 -5 7 -15 15 -24 26 -26 10 -25 -43 0 -28 14 -53 22 -56 19 -9 -9 -7 -34 3
-28 4 3 22 1 40 -4 17 -6 44 -14 61 -19 l29 -9 -18 48 c-19 50 -61 100 -83
100 -9 0 -9 -3 2 -10 9 -6 10 -10 3 -10 -7 0 -17 9 -23 20 -6 11 -14 19 -18
18 -4 -1 -17 3 -28 10 -12 6 -24 8 -28 5z"/>
<path d="M1490 2115 c0 -11 -5 -15 -15 -11 -18 6 -20 -10 -3 -20 6 -4 14 -2
16 4 2 7 10 12 19 12 17 0 13 22 -5 28 -7 2 -12 -4 -12 -13z"/>
<path d="M1530 2101 c0 -6 4 -13 10 -16 6 -3 7 1 4 9 -7 18 -14 21 -14 7z"/>
<path d="M1550 2060 c-9 -6 -10 -10 -3 -10 6 0 15 5 18 10 8 12 4 12 -15 0z"/>
<path d="M1503 2034 c16 -14 26 -28 24 -30 -2 -3 -26 -5 -51 -6 -57 -1 -82 16
-45 31 13 5 18 10 11 10 -8 1 -26 -7 -40 -18 -38 -26 -122 -62 -122 -51 0 4 6
10 13 13 9 4 9 7 0 17 -10 11 -14 10 -19 -4 -5 -14 -9 -14 -23 -4 -14 12 -14
11 -3 -4 8 -9 10 -23 6 -29 -5 -9 -11 -7 -22 7 -14 18 -14 18 -9 -3 4 -18 1
-23 -16 -24 -18 -1 -19 -2 -4 -6 10 -3 29 3 43 12 13 9 28 14 32 11 5 -3 26 1
48 9 50 18 134 20 134 3 0 -10 2 -10 8 0 5 7 29 13 55 14 26 0 47 5 47 10 0 6
6 5 14 -1 18 -15 88 -10 93 6 3 8 -6 9 -33 3 -42 -10 -64 -4 -64 16 0 27 44
38 79 20 17 -9 31 -13 31 -8 0 5 -17 15 -39 22 -33 11 -42 10 -65 -5 -15 -10
-25 -24 -22 -31 3 -8 -1 -14 -10 -14 -10 0 -14 6 -11 15 4 9 -5 20 -25 30 -44
21 -47 19 -15 -11z"/>
<path d="M1260 2019 c0 -5 5 -7 10 -4 6 3 10 8 10 11 0 2 -4 4 -10 4 -5 0 -10
-5 -10 -11z"/>
<path d="M1830 1988 c0 -9 5 -20 10 -23 13 -8 13 5 0 25 -8 13 -10 13 -10 -2z"/>
<path d="M1065 1970 c-3 -5 -1 -10 4 -10 6 0 11 5 11 10 0 6 -2 10 -4 10 -3 0
-8 -4 -11 -10z"/>
<path d="M1090 1959 c0 -5 9 -9 20 -9 11 0 20 2 20 4 0 2 -9 6 -20 9 -11 3
-20 1 -20 -4z"/>
<path d="M1070 1930 c0 -5 5 -10 11 -10 5 0 7 5 4 10 -3 6 -8 10 -11 10 -2 0
-4 -4 -4 -10z"/>
<path d="M1967 1933 c-4 -3 -7 -13 -7 -22 1 -13 3 -13 11 2 11 19 8 33 -4 20z"/>
<path d="M1710 1919 c0 -5 5 -7 10 -4 6 3 10 8 10 11 0 2 -4 4 -10 4 -5 0 -10
-5 -10 -11z"/>
<path d="M1430 1889 c0 -5 7 -9 15 -9 8 0 15 -4 15 -10 0 -5 7 -10 16 -10 9 0
23 -8 30 -17 7 -10 16 -14 20 -10 5 4 2 12 -6 18 -11 7 -6 8 15 3 17 -4 39
-14 49 -23 18 -15 19 -15 13 2 -4 10 -1 18 6 19 7 0 17 2 22 3 6 2 16 3 23 4
7 0 10 6 7 11 -4 7 3 9 20 6 18 -3 25 -1 22 7 -4 14 -27 17 -42 6 -21 -15
-123 -18 -173 -4 -29 7 -52 9 -52 4z"/>
<path d="M1190 1850 c0 -5 5 -10 11 -10 5 0 7 5 4 10 -3 6 -8 10 -11 10 -2 0
-4 -4 -4 -10z"/>
<path d="M1890 1832 c6 -13 14 -21 18 -18 3 4 -2 14 -12 24 -18 16 -18 16 -6
-6z"/>
<path d="M1824 1794 c5 -11 9 -24 10 -30 3 -16 26 -44 37 -44 4 0 11 9 14 20
4 11 11 18 16 15 13 -9 10 7 -6 29 -7 10 -19 15 -25 11 -9 -6 -9 -9 0 -15 14
-9 6 -40 -10 -40 -5 0 -11 8 -11 18 -3 40 -5 46 -18 50 -10 3 -12 0 -7 -14z"/>
<path d="M1656 1753 c-6 -14 -5 -15 5 -6 7 7 10 15 7 18 -3 3 -9 -2 -12 -12z"/>
<path d="M1265 1750 c-3 -6 1 -7 9 -4 18 7 21 14 7 14 -6 0 -13 -4 -16 -10z"/>
<path d="M1435 1740 c-3 -5 -1 -10 4 -10 6 0 11 5 11 10 0 6 -2 10 -4 10 -3 0
-8 -4 -11 -10z"/>
<path d="M1630 1740 c0 -17 17 -47 23 -40 2 3 -2 16 -10 30 -7 14 -13 18 -13
10z"/>
<path d="M1680 1730 c0 -5 5 -10 10 -10 6 0 10 5 10 10 0 6 -4 10 -10 10 -5 0
-10 -4 -10 -10z"/>
<path d="M1230 1720 c-13 -8 -13 -10 2 -10 9 0 20 5 23 10 8 13 -5 13 -25 0z"/>
<path d="M1724 1711 c0 -11 5 -17 13 -14 10 4 11 9 2 19 -15 18 -15 18 -15 -5z"/>
<path d="M1410 1700 c0 -5 5 -10 11 -10 5 0 7 5 4 10 -3 6 -8 10 -11 10 -2 0
-4 -4 -4 -10z"/>
<path d="M1693 1692 c-7 -4 -9 -13 -4 -21 6 -9 10 -7 14 8 3 12 4 21 4 21 -1
0 -7 -4 -14 -8z"/>
<path d="M1370 1659 c0 -5 5 -7 10 -4 6 3 10 8 10 11 0 2 -4 4 -10 4 -5 0 -10
-5 -10 -11z"/>
<path d="M1655 1660 c-3 -6 1 -7 9 -4 18 7 21 14 7 14 -6 0 -13 -4 -16 -10z"/>
<path d="M2086 1583 c-6 -14 -5 -15 5 -6 7 7 10 15 7 18 -3 3 -9 -2 -12 -12z"/>
<path d="M603 1475 c-3 -9 -3 -18 -1 -21 3 -3 8 4 11 16 6 23 -1 27 -10 5z"/>
<path d="M646 1398 c3 -5 10 -6 15 -3 13 9 11 12 -6 12 -8 0 -12 -4 -9 -9z"/>
<path d="M1784 1373 c-23 -21 -65 -51 -93 -68 -48 -28 -63 -45 -41 -45 6 0 10
-9 10 -20 0 -22 16 -27 22 -8 4 10 11 10 29 2 l24 -11 -23 -12 c-15 -8 -22 -8
-22 -1 0 7 -6 8 -18 1 -15 -8 -78 -16 -92 -11 -30 9 -74 5 -92 -10 -19 -15
-23 -29 -24 -91 -2 -53 -1 -63 4 -34 5 27 9 35 14 24 8 -21 50 -14 101 18 30
19 37 29 35 51 -2 19 2 27 12 27 11 0 15 -10 13 -35 -1 -24 0 -27 4 -10 5 27
21 50 31 48 4 -1 21 5 39 15 31 16 32 16 63 -13 18 -17 35 -30 39 -30 9 -1 51
-37 51 -44 0 -12 -28 -6 -40 9 -7 8 -16 12 -21 10 -4 -3 -28 4 -52 15 -46 22
-97 35 -81 21 5 -4 29 -16 54 -26 25 -9 56 -22 70 -28 80 -33 126 -45 135 -35
7 7 6 12 -2 15 -7 3 -48 34 -90 70 -43 35 -97 76 -121 90 l-42 25 32 17 c58
30 78 46 78 61 0 13 2 13 11 0 9 -12 10 -12 5 4 -4 12 -2 17 7 13 8 -3 13 3
14 14 1 10 1 19 0 19 -1 0 -21 -17 -43 -37z m-226 -210 c2 -13 8 -23 13 -23 6
0 7 9 4 21 -6 18 -5 19 14 10 26 -14 19 -31 -20 -53 -56 -32 -89 -20 -89 32 0
41 72 53 78 13z"/>
<path d="M1525 1150 c3 -5 1 -10 -5 -10 -6 0 -8 -4 -5 -10 10 -16 21 -11 22
10 1 11 -3 20 -8 20 -6 0 -7 -4 -4 -10z"/>
<path d="M2020 1391 c0 -6 4 -12 8 -15 5 -3 9 1 9 9 0 8 -4 15 -9 15 -4 0 -8
-4 -8 -9z"/>
<path d="M840 1370 c0 -5 5 -10 11 -10 5 0 7 5 4 10 -3 6 -8 10 -11 10 -2 0
-4 -4 -4 -10z"/>
<path d="M2067 1373 c-4 -3 -7 -11 -7 -17 0 -6 5 -5 12 2 6 6 9 14 7 17 -3 3
-9 2 -12 -2z"/>
<path d="M898 1313 c15 -16 29 -25 30 -20 2 4 9 4 14 1 7 -4 8 -2 4 4 -4 7
-12 12 -17 12 -6 0 -17 7 -25 15 -9 8 -19 15 -24 15 -5 0 3 -12 18 -27z"/>
<path d="M1556 1275 c10 -15 21 -21 34 -18 13 3 20 0 20 -8 0 -11 2 -11 10 1
10 16 -2 26 -50 40 -29 8 -29 8 -14 -15z"/>
<path d="M960 1250 c6 -11 12 -20 14 -20 2 0 2 9 -1 20 -3 11 -9 20 -15 20 -5
0 -4 -9 2 -20z"/>
<path d="M2601 1267 c2 -1 13 -9 24 -17 19 -14 19 -14 6 3 -7 9 -18 17 -24 17
-6 0 -8 -1 -6 -3z"/>
<path d="M1483 1248 c-13 -6 -23 -15 -23 -20 0 -5 -4 -7 -9 -4 -11 7 -21 -17
-13 -31 4 -6 24 6 47 28 40 39 39 47 -2 27z"/>
<path d="M1540 1230 c0 -5 5 -10 10 -10 6 0 10 5 10 10 0 6 -4 10 -10 10 -5 0
-10 -4 -10 -10z"/>
<path d="M1012 1168 c-14 -14 -16 -62 -2 -53 5 3 6 13 3 22 -5 12 -3 14 8 8 8
-4 11 -5 7 0 -4 4 -3 14 3 22 14 16 -3 17 -19 1z"/>
<path d="M1417 1125 c-4 -8 -2 -17 3 -20 6 -4 10 3 10 14 0 25 -6 27 -13 6z"/>
<path d="M2756 1068 c-9 -81 9 -278 24 -278 21 0 23 77 3 150 -3 8 -8 58 -12
110 l-7 95 -8 -77z"/>
<path d="M2909 1063 c-2 -10 -1 -52 2 -93 l5 -75 2 93 c2 88 -1 113 -9 75z"/>
<path d="M1406 1062 c-3 -5 -3 -17 -1 -28 2 -10 4 -25 4 -31 1 -15 31 -18 31
-3 0 6 -6 10 -12 10 -10 0 -10 2 0 9 11 7 11 9 -2 14 -9 4 -16 12 -15 19 0 10
2 10 6 1 2 -7 9 -13 14 -13 4 0 6 7 3 15 -7 16 -20 20 -28 7z"/>
<path d="M2986 1034 c-4 -15 -24 -63 -46 -108 -21 -44 -48 -112 -61 -151 -12
-38 -30 -87 -41 -107 -10 -21 -16 -38 -13 -38 8 0 61 112 80 170 10 30 33 89
52 130 33 72 51 130 40 130 -3 0 -8 -12 -11 -26z"/>
<path d="M361 1034 c0 -11 3 -14 6 -6 3 7 2 16 -1 19 -3 4 -6 -2 -5 -13z"/>
<path d="M1651 1034 c0 -11 3 -14 6 -6 3 7 2 16 -1 19 -3 4 -6 -2 -5 -13z"/>
<path d="M231 1010 c-7 -23 -7 -30 2 -30 7 0 13 14 13 30 1 17 0 30 -1 30 -2
0 -8 -13 -14 -30z"/>
<path d="M1373 970 c0 -41 2 -58 4 -37 2 20 2 54 0 75 -2 20 -4 3 -4 -38z"/>
<path d="M1490 999 c0 -5 5 -7 10 -4 6 3 10 8 10 11 0 2 -4 4 -10 4 -5 0 -10
-5 -10 -11z"/>
<path d="M1325 978 c4 -11 2 -18 -5 -18 -6 0 -8 -4 -5 -10 3 -5 2 -10 -2 -10
-5 0 -9 -9 -10 -20 -1 -11 3 -20 9 -20 6 0 8 3 5 6 -4 4 1 20 10 35 14 23 15
31 5 41 -11 11 -12 10 -7 -4z"/>
<path d="M1417 965 c-4 -8 -2 -17 3 -20 6 -4 10 -4 10 -1 0 2 3 11 6 20 3 9 2
16 -4 16 -5 0 -12 -7 -15 -15z"/>
<path d="M2661 964 c0 -11 3 -14 6 -6 3 7 2 16 -1 19 -3 4 -6 -2 -5 -13z"/>
<path d="M217 918 c-6 -73 -16 -138 -24 -168 -12 -46 -15 -202 -4 -213 6 -6
11 -21 11 -33 0 -13 4 -25 9 -28 5 -4 12 -24 16 -46 4 -22 10 -42 14 -44 8 -5
-2 90 -18 176 -10 59 -6 155 8 172 11 14 12 236 1 236 -5 0 -10 -24 -13 -52z"/>
<path d="M1462 945 c0 -16 2 -22 5 -12 2 9 2 23 0 30 -3 6 -5 -1 -5 -18z"/>
<path d="M1696 922 c-3 -5 1 -9 9 -9 8 0 15 4 15 9 0 4 -4 8 -9 8 -6 0 -12 -4
-15 -8z"/>
<path d="M1747 919 c7 -7 15 -10 18 -7 3 3 -2 9 -12 12 -14 6 -15 5 -6 -5z"/>
<path d="M0 918 c0 -10 37 -159 45 -183 19 -53 139 -288 142 -278 2 6 -7 30
-21 52 -14 22 -26 43 -26 45 0 2 -20 46 -44 98 -23 51 -51 127 -60 168 -14 63
-35 122 -36 98z"/>
<path d="M1662 885 c0 -16 2 -22 5 -12 2 9 2 23 0 30 -3 6 -5 -1 -5 -18z"/>
<path d="M1430 887 c0 -10 -4 -16 -9 -13 -5 3 -11 0 -14 -8 -7 -18 17 -53 27
-38 3 6 1 14 -4 17 -8 5 -6 11 4 18 11 9 13 16 6 27 -8 13 -10 12 -10 -3z"/>
<path d="M2986 892 c-3 -5 -7 -19 -10 -33 -3 -13 -11 -49 -19 -79 -8 -30 -20
-80 -27 -110 -15 -67 -41 -134 -86 -222 -19 -38 -31 -68 -27 -68 24 1 138 229
149 297 11 71 30 223 28 223 -2 0 -5 -4 -8 -8z"/>
<path d="M1296 873 c-6 -14 -5 -15 5 -6 7 7 10 15 7 18 -3 3 -9 -2 -12 -12z"/>
<path d="M1365 687 c-1 -181 -5 -267 -19 -362 -21 -142 -30 -325 -17 -325 6 0
11 10 11 23 1 12 3 38 5 57 33 256 46 457 39 628 -4 100 -10 182 -13 182 -3 0
-6 -91 -6 -203z"/>
<path d="M1716 861 c9 -17 17 -31 19 -31 8 0 -9 40 -21 51 -10 8 -10 3 2 -20z"/>
<path d="M2833 855 c-3 -9 -3 -19 1 -22 3 -4 6 1 6 11 0 10 5 14 12 10 7 -4 8
-3 4 4 -10 16 -15 15 -23 -3z"/>
<path d="M319 843 c-13 -16 -12 -17 4 -4 9 7 17 15 17 17 0 8 -8 3 -21 -13z"/>
<path d="M1286 835 c-9 -26 -7 -32 5 -12 6 10 9 21 6 23 -2 3 -7 -2 -11 -11z"/>
<path d="M1496 837 c3 -10 9 -15 12 -12 3 3 0 11 -7 18 -10 9 -11 8 -5 -6z"/>
<path d="M326 807 c3 -10 9 -15 12 -12 3 3 0 11 -7 18 -10 9 -11 8 -5 -6z"/>
<path d="M1462 795 c0 -16 2 -22 5 -12 2 9 2 23 0 30 -3 6 -5 -1 -5 -18z"/>
<path d="M1736 803 c-7 -18 10 -41 21 -28 5 4 3 10 -4 12 -7 2 -9 11 -6 19 3
8 3 14 0 14 -3 0 -8 -8 -11 -17z"/>
<path d="M2830 810 c0 -5 5 -10 11 -10 5 0 7 5 4 10 -3 6 -8 10 -11 10 -2 0
-4 -4 -4 -10z"/>
<path d="M1419 805 c-5 -20 -3 -62 4 -58 4 2 6 18 5 34 -2 26 -6 37 -9 24z"/>
<path d="M2801 793 c1 -5 0 -24 -1 -43 -2 -32 -3 -33 -9 -10 -4 14 -8 -24 -9
-89 -2 -63 -5 -118 -8 -122 -3 -5 -3 -9 1 -9 9 0 26 51 30 90 9 95 19 156 26
160 5 3 -1 11 -11 18 -11 7 -20 9 -19 5z"/>
<path d="M1480 781 c0 -2 9 -15 21 -27 17 -18 18 -22 5 -27 -11 -4 -16 -1 -16
10 0 23 -8 13 -14 -17 -2 -14 -8 -36 -14 -49 -7 -19 -4 -32 12 -58 26 -40 60
-52 85 -29 11 10 21 14 23 9 3 -4 3 -2 1 5 -2 8 0 19 4 25 15 24 12 47 -8 82
-12 19 -29 35 -39 35 -20 0 -44 25 -36 38 3 5 -1 9 -9 9 -8 0 -15 -3 -15 -6z
m81 -83 c23 -29 23 -42 2 -79 -21 -36 -29 -36 -59 -3 -30 31 -30 51 -2 81 27
29 35 29 59 1z"/>
<path d="M1513 663 c0 -20 16 -35 29 -27 16 10 8 44 -10 44 -11 0 -19 -7 -19
-17z"/>
<path d="M1752 740 c14 -22 24 -19 15 5 -4 8 -11 15 -17 15 -6 0 -6 -7 2 -20z"/>
<path d="M1390 715 c0 -14 4 -25 9 -25 4 0 6 11 3 25 -2 14 -6 25 -8 25 -2 0
-4 -11 -4 -25z"/>
<path d="M125 721 c-3 -5 -2 -12 3 -15 5 -3 9 1 9 9 0 17 -3 19 -12 6z"/>
<path d="M1760 704 c0 -3 4 -13 9 -22 5 -9 11 -33 14 -52 4 -19 10 -52 15 -72
5 -20 8 -39 5 -42 -3 -2 1 -14 7 -26 6 -12 12 -35 12 -51 1 -16 5 -32 11 -36
13 -8 2 67 -30 200 -14 59 -30 107 -35 107 -4 0 -8 -3 -8 -6z"/>
<path d="M1266 673 c-6 -14 -5 -15 5 -6 7 7 10 15 7 18 -3 3 -9 -2 -12 -12z"/>
<path d="M2420 679 c0 -5 5 -7 10 -4 6 3 10 8 10 11 0 2 -4 4 -10 4 -5 0 -10
-5 -10 -11z"/>
<path d="M2701 627 c4 -29 11 -101 15 -162 6 -94 9 -104 16 -70 13 68 10 179
-7 211 -8 16 -15 37 -15 46 0 9 -4 19 -8 22 -5 3 -5 -18 -1 -47z"/>
<path d="M2440 651 c0 -6 5 -13 10 -16 6 -3 10 1 10 9 0 9 -4 16 -10 16 -5 0
-10 -4 -10 -9z"/>
<path d="M2860 640 c-9 -6 -10 -10 -3 -10 6 0 15 5 18 10 8 12 4 12 -15 0z"/>
<path d="M1250 631 c0 -6 4 -13 10 -16 6 -3 7 1 4 9 -7 18 -14 21 -14 7z"/>
<path d="M1401 624 c0 -11 3 -14 6 -6 3 7 2 16 -1 19 -3 4 -6 -2 -5 -13z"/>
<path d="M285 621 c3 -6 -3 -14 -12 -20 -10 -6 -13 -11 -6 -11 6 0 15 5 18 10
4 6 12 7 18 3 7 -4 6 0 -2 10 -14 18 -26 23 -16 8z"/>
<path d="M2830 589 c-7 -17 -23 -46 -36 -64 -26 -39 -47 -127 -33 -136 6 -3 7
-18 3 -35 l-8 -29 -6 25 c-6 23 -8 21 -19 -20 -7 -25 -23 -66 -36 -91 -18 -34
-25 -62 -24 -100 0 -40 3 -49 9 -34 5 11 9 34 9 52 1 34 19 83 31 83 13 0 32
58 24 71 -4 7 -3 10 3 6 13 -8 30 34 37 88 6 55 16 83 43 133 13 23 21 42 18
42 -3 0 -1 9 5 20 6 11 7 20 2 20 -5 0 -15 -14 -22 -31z"/>
<path d="M1652 580 c0 -14 2 -19 5 -12 2 6 2 18 0 25 -3 6 -5 1 -5 -13z"/>
<path d="M1650 541 c0 -6 4 -13 10 -16 6 -3 7 1 4 9 -7 18 -14 21 -14 7z"/>
<path d="M2497 534 c3 -7 9 -14 14 -14 14 0 10 17 -5 23 -10 4 -13 1 -9 -9z"/>
<path d="M105 523 c4 -10 8 -23 8 -30 0 -7 3 -10 7 -8 3 2 12 -11 19 -28 8
-18 19 -38 25 -46 5 -7 11 -20 12 -28 2 -8 6 -18 10 -21 4 -4 4 1 1 11 -4 9
-4 17 -2 17 9 0 67 -92 80 -128 17 -47 19 -22 2 40 -7 26 -27 63 -47 85 -19
21 -52 64 -73 96 -36 56 -56 75 -42 40z"/>
<path d="M1401 319 c1 -85 4 -140 8 -124 7 34 4 265 -4 273 -3 3 -4 -64 -4
-149z"/>
<path d="M2560 439 c16 -17 32 -40 35 -50 4 -11 11 -19 16 -19 6 0 5 9 -2 23
-14 27 -60 77 -71 77 -4 0 5 -14 22 -31z"/>
<path d="M443 422 c0 -12 5 -22 9 -22 11 0 10 12 -2 30 -7 12 -9 10 -7 -8z"/>
<path d="M1655 419 c-4 -6 -5 -12 -2 -15 2 -3 7 2 10 11 7 17 1 20 -8 4z"/>
<path d="M30 408 c0 -4 4 -8 9 -8 6 0 12 4 15 8 3 5 -1 9 -9 9 -8 0 -15 -4
-15 -9z"/>
<path d="M2986 384 c-4 -9 -4 -19 -1 -22 2 -3 7 3 11 12 4 9 4 19 1 22 -2 3
-7 -3 -11 -12z"/>
<path d="M1700 359 c0 -16 4 -28 9 -25 8 5 3 56 -5 56 -2 0 -4 -14 -4 -31z"/>
<path d="M102 345 c-1 -24 2 -33 12 -29 8 3 11 15 8 30 -7 38 -19 37 -20 -1z"/>
<path d="M2446 363 c-6 -14 -9 -14 -15 -4 -13 20 -101 -46 -101 -77 0 -15 -4
-21 -12 -16 -6 4 -4 -3 4 -15 11 -16 13 -32 8 -54 -9 -42 1 -69 33 -86 37 -20
63 -1 83 63 16 51 16 56 1 80 -9 14 -15 32 -12 40 17 53 16 51 25 36 8 -13 10
-12 10 3 0 9 -4 17 -10 17 -5 0 -7 7 -4 15 4 8 4 15 1 15 -3 0 -8 -8 -11 -17z
m-11 -22 c3 -6 -3 -14 -13 -20 -14 -7 -17 -18 -14 -45 3 -22 10 -36 18 -36 16
0 19 -21 4 -36 -5 -5 -11 -22 -12 -38 -3 -33 -32 -53 -53 -36 -9 8 -12 33 -10
86 2 69 5 78 31 104 32 31 40 34 49 21z"/>
<path d="M2380 208 c0 -9 5 -20 10 -23 13 -8 13 5 0 25 -8 13 -10 13 -10 -2z"/>
<path d="M2360 171 c0 -6 5 -13 10 -16 6 -3 10 1 10 9 0 9 -4 16 -10 16 -5 0
-10 -4 -10 -9z"/>
<path d="M410 360 c-9 -6 -10 -10 -3 -10 6 0 15 5 18 10 8 12 4 12 -15 0z"/>
<path d="M363 345 c0 -8 4 -15 9 -15 4 0 8 7 8 15 0 8 -4 15 -8 15 -5 0 -9 -7
-9 -15z"/>
<path d="M1837 343 c-4 -3 -7 -11 -7 -17 0 -6 5 -5 12 2 6 6 9 14 7 17 -3 3
-9 2 -12 -2z"/>
<path d="M2544 313 c4 -16 11 -48 16 -73 28 -145 38 -180 51 -180 6 0 6 7 -1
19 -13 25 -13 34 0 26 13 -8 35 5 23 14 -5 3 -19 40 -32 81 -13 41 -29 87 -37
101 -7 14 -11 29 -7 33 3 3 1 6 -6 6 -9 0 -11 -8 -7 -27z"/>
<path d="M2779 290 c-7 -25 -13 -47 -13 -50 -3 -14 -41 -87 -54 -102 -17 -20
-7 -25 12 -5 13 12 70 120 79 147 2 8 1 24 -3 35 -6 16 -10 12 -21 -25z"/>
<path d="M345 310 c3 -5 8 -10 11 -10 2 0 4 5 4 10 0 6 -5 10 -11 10 -5 0 -7
-4 -4 -10z"/>
<path d="M1703 165 c7 -187 5 -165 17 -165 6 0 8 37 4 103 -3 56 -6 126 -8
155 -2 29 -6 56 -10 60 -5 4 -6 -65 -3 -153z"/>
<path d="M1851 304 c0 -11 3 -14 6 -6 3 7 2 16 -1 19 -3 4 -6 -2 -5 -13z"/>
<path d="M24 289 c-4 -7 -3 -9 4 -5 5 3 13 0 15 -6 4 -9 6 -10 6 -1 1 17 -16
25 -25 12z"/>
<path d="M120 287 c0 -7 9 -18 20 -25 23 -14 26 -5 6 21 -16 20 -26 22 -26 4z"/>
<path d="M202 247 c1 -24 7 -34 17 -33 9 1 16 -3 16 -9 2 -19 28 -65 37 -65 5
0 4 10 -2 23 -11 22 -11 22 9 -2 22 -24 28 -47 11 -36 -16 10 -12 -1 15 -40
19 -29 22 -41 15 -61 -6 -15 -6 -24 0 -24 21 0 30 49 16 83 -8 17 -20 46 -26
62 -6 17 -29 44 -50 60 -22 17 -39 38 -40 47 0 9 -5 20 -10 23 -7 4 -10 -6 -8
-28z"/>
<path d="M43 245 c0 -8 4 -12 9 -9 5 3 6 10 3 15 -9 13 -12 11 -12 -6z"/>
<path d="M156 231 c-4 -6 -3 -11 2 -11 5 0 7 -15 5 -32 -3 -23 -2 -29 5 -19 8
11 12 10 21 -5 6 -11 11 -14 11 -7 0 6 -7 18 -15 26 -8 8 -12 17 -9 20 3 3 2
13 -4 23 -6 11 -11 13 -16 5z"/>
<path d="M2866 223 c-6 -14 -5 -15 5 -6 7 7 10 15 7 18 -3 3 -9 -2 -12 -12z"/>
<path d="M1650 220 c0 -5 5 -10 11 -10 5 0 7 5 4 10 -3 6 -8 10 -11 10 -2 0
-4 -4 -4 -10z"/>
<path d="M41 215 c0 -13 24 -45 34 -45 4 0 2 6 -4 13 -6 8 -7 18 -3 22 4 5 2
5 -5 2 -6 -4 -14 -1 -16 5 -3 7 -6 9 -6 3z"/>
<path d="M375 193 c6 -27 6 -27 -9 -9 -13 17 -16 17 -16 4 0 -9 5 -18 12 -20
7 -3 9 -11 3 -24 -4 -10 -10 -30 -12 -44 -2 -20 0 -17 13 10 18 42 27 110 13
110 -5 0 -7 -12 -4 -27z"/>
<path d="M1652 160 c0 -14 2 -19 5 -12 2 6 2 18 0 25 -3 6 -5 1 -5 -13z"/>
<path d="M74 124 c0 -13 2 -21 5 -19 2 3 10 0 18 -7 11 -8 12 -7 7 6 -3 9 -11
16 -18 16 -7 0 -6 3 2 9 11 7 11 9 0 14 -10 3 -14 -3 -14 -19z"/>
<path d="M1389 142 c8 -6 11 -18 7 -29 -4 -11 -2 -31 3 -44 9 -22 10 -21 12
14 1 20 2 43 3 49 1 7 -8 14 -19 16 -15 2 -17 1 -6 -6z"/>
<path d="M1445 130 c-3 -5 -1 -10 4 -10 6 0 11 5 11 10 0 6 -2 10 -4 10 -3 0
-8 -4 -11 -10z"/>
<path d="M1470 128 c0 -4 16 -8 35 -8 19 0 35 2 35 4 0 2 -16 6 -35 8 -19 2
-35 0 -35 -4z"/>
<path d="M2803 125 c0 -11 4 -12 14 -4 7 6 13 13 13 15 0 2 -6 4 -13 4 -8 0
-14 -7 -14 -15z"/>
<path d="M1550 127 c5 -5 72 -16 99 -17 7 0 11 -6 7 -15 -3 -8 -1 -15 4 -15
12 0 13 21 2 35 -4 6 -32 12 -62 13 -30 2 -52 1 -50 -1z"/>
<path d="M476 107 c3 -10 9 -15 12 -12 3 3 0 11 -7 18 -10 9 -11 8 -5 -6z"/>
<path d="M7 99 c7 -7 15 -10 18 -7 3 3 -2 9 -12 12 -14 6 -15 5 -6 -5z"/>
<path d="M390 71 c0 -6 4 -13 10 -16 6 -3 7 1 4 9 -7 18 -14 21 -14 7z"/>
<path d="M1426 59 c3 -5 14 -9 25 -9 10 0 19 4 19 9 0 5 -11 9 -25 9 -13 0
-22 -4 -19 -9z"/>
<path d="M1620 49 c0 -5 5 -7 10 -4 6 3 10 8 10 11 0 2 -4 4 -10 4 -5 0 -10
-5 -10 -11z"/>
<path d="M2662 35 c0 -17 2 -22 5 -12 2 9 2 23 0 30 -3 6 -5 -1 -5 -18z"/>
<path d="M2710 26 c0 -22 3 -27 11 -19 8 8 8 16 0 30 -9 16 -10 14 -11 -11z"/>
</g>
</svg>
